<svg xmlns="http://www.w3.org/2000/svg" viewBox="0 0 128 128"><defs><style>.cls-1{isolation:isolate;}.cls-2{mix-blend-mode:multiply;}.cls-3{fill:#b78d5c;}.cls-4{fill:#9b6f43;}.cls-5{fill:#eae0b5;}.cls-6{fill:#efb14d;}.cls-7{fill:#ba642a;}.cls-8{fill:#5b361d;}</style></defs><title>owl</title><g class="cls-1"><g id="icons" class="cls-2"><path class="cls-3" d="M101,75c-14.3,10.48-16.77,6.42,3.81-12.16C103.35,42.08,92.64,23,64,23,35.75,23,24.95,41.56,23.25,62,44.85,81.31,42.51,85.64,28,75c15.73,13.76,16.95,20.74-1.06,7.68C34.77,96.66,52.57,105,64,105c11.09,0,28.18-7.85,36.34-21.09C84.15,95.28,85.79,88.31,101,75Z"/><path class="cls-4" d="M28,75c14.51,10.64,16.85,6.31-4.75-13-.17,2-.25,4-.25,6a29.75,29.75,0,0,0,3.94,14.68C44.95,95.74,43.73,88.76,28,75Z"/><circle class="cls-5" cx="48" cy="60" r="14"/><circle class="cls-5" cx="80" cy="60" r="14"/><circle cx="80" cy="60" r="4"/><circle cx="48" cy="60" r="4"/><path class="cls-6" d="M74.67,78c-5.35-2-9.23-6-10.17-8.7a.56.56,0,0,0-1,0C62.56,72,58.68,76,53.33,78a.5.5,0,0,0-.32.55c.57,3.26,3.44,5.13,6,6.79a14.73,14.73,0,0,1,3.77,3,1.59,1.59,0,0,0,2.52,0,14.73,14.73,0,0,1,3.77-3c2.53-1.65,5.4-3.53,6-6.79A.5.5,0,0,0,74.67,78Z"/><circle class="cls-7" cx="62" cy="77" r="1"/><circle class="cls-7" cx="66" cy="77" r="1"/><path class="cls-8" d="M61.47,54.84C58.59,46.19,53,42.47,48.16,39.18,43.42,36,39.33,33.25,37.87,26.89a.5.5,0,0,0-1,0C34.78,34.38,41.41,44,48.3,47c5.81,2.49,12.3,8.35,12.36,8.41a.5.5,0,0,0,.81-.53Z"/><path class="cls-8" d="M91.1,26.86a.48.48,0,0,0-.49-.36.5.5,0,0,0-.48.39C88.67,33.25,84.58,36,79.84,39.18c-4.89,3.29-10.43,7-13.32,15.66a.5.5,0,0,0,.81.53c.06-.06,6.54-5.92,12.36-8.41C86.59,44,93.22,34.38,91.1,26.86Z"/><path class="cls-4" d="M104.81,62.84C84.23,81.42,86.7,85.48,101,75c-15.21,13.31-16.85,20.28-.66,8.91A30,30,0,0,0,105,68C105,66.27,104.93,64.55,104.81,62.84Z"/></g></g></svg>